<svg xmlns="http://www.w3.org/2000/svg" xmlns:xlink="http://www.w3.org/1999/xlink" width="102" height="40" viewBox="0 0 102 40">
    <defs>
        <path id="prefix__a" d="M0.822 0.636L28.115 0.636 28.115 27.826 0.822 27.826z"/>
        <path id="prefix__c" d="M0 0.666L22.809 0.666 22.809 27.804 0 27.804z"/>
    </defs>
    <g fill="none" fill-rule="evenodd">
        <g transform="translate(73.23 12.174)">
            <mask id="prefix__b" fill="#fff">
                <use xlink:href="#prefix__a"/>
            </mask>
            <path fill="#ffffff" d="M14.451 5.88c2.297 0 4.282.815 5.918 2.448 1.636 1.631 2.454 3.61 2.454 5.902 0 2.292-.787 4.27-2.453 5.933-1.637 1.635-3.62 2.418-5.917 2.418-2.298.001-4.312-.782-5.948-2.417-1.64-1.63-2.426-3.64-2.426-5.933 0-2.29.787-4.27 2.425-5.902 1.668-1.663 3.65-2.45 5.947-2.45m0-5.243c-3.783 0-6.985 1.36-9.608 4.01C2.183 7.298.822 10.493.822 14.232c0 3.773 1.362 6.934 4.023 9.583 2.655 2.652 5.825 4.011 9.608 4.011 3.784 0 6.952-1.36 9.61-4.012 2.692-2.615 4.053-5.811 4.052-9.584 0-3.738-1.361-6.934-4.054-9.585-2.658-2.65-5.826-4.009-9.61-4.009" mask="url(#prefix__b)"/>
        </g>
        <path fill="#ffffff" d="M48.742 39.974L58.829 29.912 68.859 39.973 75.948 39.973 62.939 25.813 75.946 12.837 67.653 12.838 48.741 31.703zM46.256 18.092L46.256 12.838 25.307 12.84 25.309 39.976 46.258 39.975 46.258 34.722 31.17 34.723 31.169 28.759 44.831 28.758 44.831 23.504 31.169 23.505 31.168 18.093z"/>
        <path fill="#42b3d7" d="M48.74 25.814l4.812-12.904L48.738 0l12.943 12.906-12.94 12.908z"/>
        <g transform="translate(0 12.174)">
            <mask id="prefix__d" fill="#fff">
                <use xlink:href="#prefix__c"/>
            </mask>
            <path fill="#ffffff" d="M8.477 27.804L14.338 27.804 14.336 5.921 22.809 5.92 22.809 0.666 0 0.668 0 5.922 8.475 5.922z" mask="url(#prefix__d)"/>
        </g>
    </g>
</svg>
